<?xml version="1.0" encoding="UTF-8" standalone="no"?>
<!DOCTYPE svg PUBLIC "-//W3C//DTD SVG 1.1//EN"
 "http://www.w3.org/Graphics/SVG/1.1/DTD/svg11.dtd">
<!-- Generated by graphviz version 2.38.0 (20140413.2041)
 -->
<!-- Title: dependencies Pages: 1 -->
<svg width="2005pt" height="548pt"
 viewBox="0.00 0.00 2005.49 548.00" xmlns="http://www.w3.org/2000/svg" xmlns:xlink="http://www.w3.org/1999/xlink">
<g id="graph0" class="graph" transform="scale(1 1) rotate(0) translate(4 544)">
<title>dependencies</title>
<polygon fill="white" stroke="none" points="-4,4 -4,-544 2001.49,-544 2001.49,4 -4,4"/>
<!-- BQUploadBnfCodes -->
<g id="node1" class="node"><title>BQUploadBnfCodes</title>
<ellipse fill="none" stroke="black" cx="1413.56" cy="-162" rx="83.5995" ry="18"/>
<text text-anchor="middle" x="1413.56" y="-157.8" font-family="Times,serif" font-size="14.00">BQUploadBnfCodes</text>
</g>
<!-- GeneratePresentationReplacements -->
<g id="node16" class="node"><title>GeneratePresentationReplacements</title>
<ellipse fill="none" stroke="black" cx="1276.56" cy="-90" rx="135.172" ry="18"/>
<text text-anchor="middle" x="1276.56" y="-85.8" font-family="Times,serif" font-size="14.00">GeneratePresentationReplacements</text>
</g>
<!-- BQUploadBnfCodes&#45;&gt;GeneratePresentationReplacements -->
<g id="edge9" class="edge"><title>BQUploadBnfCodes&#45;&gt;GeneratePresentationReplacements</title>
<path fill="none" stroke="black" d="M1382.47,-145.116C1363.36,-135.348 1338.63,-122.714 1317.88,-112.11"/>
<polygon fill="black" stroke="black" points="1319.45,-108.985 1308.96,-107.552 1316.27,-115.218 1319.45,-108.985"/>
</g>
<!-- ImportBnfCodes -->
<g id="node2" class="node"><title>ImportBnfCodes</title>
<ellipse fill="none" stroke="black" cx="1513.56" cy="-234" rx="69.5996" ry="18"/>
<text text-anchor="middle" x="1513.56" y="-229.8" font-family="Times,serif" font-size="14.00">ImportBnfCodes</text>
</g>
<!-- ImportBnfCodes&#45;&gt;BQUploadBnfCodes -->
<g id="edge1" class="edge"><title>ImportBnfCodes&#45;&gt;BQUploadBnfCodes</title>
<path fill="none" stroke="black" d="M1490.37,-216.765C1476.96,-207.379 1459.9,-195.437 1445.27,-185.193"/>
<polygon fill="black" stroke="black" points="1447.18,-182.257 1436.98,-179.39 1443.16,-187.992 1447.18,-182.257"/>
</g>
<!-- BQUploadPresentations -->
<g id="node13" class="node"><title>BQUploadPresentations</title>
<ellipse fill="none" stroke="black" cx="1525.56" cy="-90" rx="95.6672" ry="18"/>
<text text-anchor="middle" x="1525.56" y="-85.8" font-family="Times,serif" font-size="14.00">BQUploadPresentations</text>
</g>
<!-- ImportBnfCodes&#45;&gt;BQUploadPresentations -->
<g id="edge7" class="edge"><title>ImportBnfCodes&#45;&gt;BQUploadPresentations</title>
<path fill="none" stroke="black" d="M1515.01,-215.871C1517.06,-191.67 1520.81,-147.211 1523.25,-118.393"/>
<polygon fill="black" stroke="black" points="1526.76,-118.449 1524.11,-108.189 1519.78,-117.859 1526.76,-118.449"/>
</g>
<!-- ImportPrescriptions -->
<g id="node29" class="node"><title>ImportPrescriptions</title>
<ellipse fill="none" stroke="black" cx="1231.56" cy="-162" rx="80.2076" ry="18"/>
<text text-anchor="middle" x="1231.56" y="-157.8" font-family="Times,serif" font-size="14.00">ImportPrescriptions</text>
</g>
<!-- ImportBnfCodes&#45;&gt;ImportPrescriptions -->
<g id="edge28" class="edge"><title>ImportBnfCodes&#45;&gt;ImportPrescriptions</title>
<path fill="none" stroke="black" d="M1465.08,-220.967C1417.45,-209.142 1344.58,-191.055 1292.93,-178.233"/>
<polygon fill="black" stroke="black" points="1293.77,-174.835 1283.22,-175.823 1292.08,-181.629 1293.77,-174.835"/>
</g>
<!-- ImportAdqs -->
<g id="node32" class="node"><title>ImportAdqs</title>
<ellipse fill="none" stroke="black" cx="1619.56" cy="-162" rx="52.6952" ry="18"/>
<text text-anchor="middle" x="1619.56" y="-157.8" font-family="Times,serif" font-size="14.00">ImportAdqs</text>
</g>
<!-- ImportBnfCodes&#45;&gt;ImportAdqs -->
<g id="edge38" class="edge"><title>ImportBnfCodes&#45;&gt;ImportAdqs</title>
<path fill="none" stroke="black" d="M1537.88,-216.941C1552.73,-207.132 1571.89,-194.484 1587.91,-183.9"/>
<polygon fill="black" stroke="black" points="1590.03,-186.696 1596.45,-178.264 1586.17,-180.855 1590.03,-186.696"/>
</g>
<!-- ImportCcgBoundaries -->
<g id="node3" class="node"><title>ImportCcgBoundaries</title>
<ellipse fill="none" stroke="black" cx="1063.56" cy="-450" rx="88.9015" ry="18"/>
<text text-anchor="middle" x="1063.56" y="-445.8" font-family="Times,serif" font-size="14.00">ImportCcgBoundaries</text>
</g>
<!-- ImportCcgDetails -->
<g id="node7" class="node"><title>ImportCcgDetails</title>
<ellipse fill="none" stroke="black" cx="1151.56" cy="-378" rx="73.4412" ry="18"/>
<text text-anchor="middle" x="1151.56" y="-373.8" font-family="Times,serif" font-size="14.00">ImportCcgDetails</text>
</g>
<!-- ImportCcgBoundaries&#45;&gt;ImportCcgDetails -->
<g id="edge36" class="edge"><title>ImportCcgBoundaries&#45;&gt;ImportCcgDetails</title>
<path fill="none" stroke="black" d="M1084.42,-432.411C1095.92,-423.257 1110.38,-411.755 1122.94,-401.772"/>
<polygon fill="black" stroke="black" points="1125.21,-404.434 1130.86,-395.47 1120.85,-398.956 1125.21,-404.434"/>
</g>
<!-- FetchCcgBoundaries -->
<g id="node4" class="node"><title>FetchCcgBoundaries</title>
<ellipse fill="none" stroke="black" cx="1063.56" cy="-522" rx="84.0582" ry="18"/>
<text text-anchor="middle" x="1063.56" y="-517.8" font-family="Times,serif" font-size="14.00">FetchCcgBoundaries</text>
</g>
<!-- FetchCcgBoundaries&#45;&gt;ImportCcgBoundaries -->
<g id="edge2" class="edge"><title>FetchCcgBoundaries&#45;&gt;ImportCcgBoundaries</title>
<path fill="none" stroke="black" d="M1063.56,-503.697C1063.56,-495.983 1063.56,-486.712 1063.56,-478.112"/>
<polygon fill="black" stroke="black" points="1067.06,-478.104 1063.56,-468.104 1060.06,-478.104 1067.06,-478.104"/>
</g>
<!-- FetchBnfCodes -->
<g id="node5" class="node"><title>FetchBnfCodes</title>
<ellipse fill="none" stroke="black" cx="1513.56" cy="-306" rx="65.2563" ry="18"/>
<text text-anchor="middle" x="1513.56" y="-301.8" font-family="Times,serif" font-size="14.00">FetchBnfCodes</text>
</g>
<!-- FetchBnfCodes&#45;&gt;ImportBnfCodes -->
<g id="edge39" class="edge"><title>FetchBnfCodes&#45;&gt;ImportBnfCodes</title>
<path fill="none" stroke="black" d="M1513.56,-287.697C1513.56,-279.983 1513.56,-270.712 1513.56,-262.112"/>
<polygon fill="black" stroke="black" points="1517.06,-262.104 1513.56,-252.104 1510.06,-262.104 1517.06,-262.104"/>
</g>
<!-- BQUploadCcgs -->
<g id="node6" class="node"><title>BQUploadCcgs</title>
<ellipse fill="none" stroke="black" cx="1705.56" cy="-90" rx="66.2253" ry="18"/>
<text text-anchor="middle" x="1705.56" y="-85.8" font-family="Times,serif" font-size="14.00">BQUploadCcgs</text>
</g>
<!-- ImportMeasures -->
<g id="node25" class="node"><title>ImportMeasures</title>
<ellipse fill="none" stroke="black" cx="1400.56" cy="-18" rx="68.1287" ry="18"/>
<text text-anchor="middle" x="1400.56" y="-13.8" font-family="Times,serif" font-size="14.00">ImportMeasures</text>
</g>
<!-- BQUploadCcgs&#45;&gt;ImportMeasures -->
<g id="edge20" class="edge"><title>BQUploadCcgs&#45;&gt;ImportMeasures</title>
<path fill="none" stroke="black" d="M1656.56,-77.7533C1603.1,-65.4851 1517.53,-45.8447 1460.21,-32.6895"/>
<polygon fill="black" stroke="black" points="1460.73,-29.2187 1450.2,-30.393 1459.17,-36.0414 1460.73,-29.2187"/>
</g>
<!-- ImportCcgDetails&#45;&gt;BQUploadCcgs -->
<g id="edge3" class="edge"><title>ImportCcgDetails&#45;&gt;BQUploadCcgs</title>
<path fill="none" stroke="black" d="M1225.02,-377.395C1313.42,-375.775 1465.22,-366.254 1587.56,-324 1645.99,-303.82 1676.21,-305.849 1706.56,-252 1730.1,-210.254 1721.66,-152.214 1713.52,-118.427"/>
<polygon fill="black" stroke="black" points="1716.81,-117.172 1710.93,-108.361 1710.03,-118.918 1716.81,-117.172"/>
</g>
<!-- ImportPracticeDetails -->
<g id="node8" class="node"><title>ImportPracticeDetails</title>
<ellipse fill="none" stroke="black" cx="532.562" cy="-306" rx="87.9066" ry="18"/>
<text text-anchor="middle" x="532.562" y="-301.8" font-family="Times,serif" font-size="14.00">ImportPracticeDetails</text>
</g>
<!-- ImportCcgDetails&#45;&gt;ImportPracticeDetails -->
<g id="edge5" class="edge"><title>ImportCcgDetails&#45;&gt;ImportPracticeDetails</title>
<path fill="none" stroke="black" d="M1082.41,-371.639C982.131,-363.491 790.594,-346.525 628.562,-324 620.9,-322.935 612.914,-321.708 604.964,-320.412"/>
<polygon fill="black" stroke="black" points="605.38,-316.933 594.94,-318.739 604.228,-323.837 605.38,-316.933"/>
</g>
<!-- ImportHscicPractices -->
<g id="node19" class="node"><title>ImportHscicPractices</title>
<ellipse fill="none" stroke="black" cx="871.562" cy="-234" rx="86.4618" ry="18"/>
<text text-anchor="middle" x="871.562" y="-229.8" font-family="Times,serif" font-size="14.00">ImportHscicPractices</text>
</g>
<!-- ImportCcgDetails&#45;&gt;ImportHscicPractices -->
<g id="edge41" class="edge"><title>ImportCcgDetails&#45;&gt;ImportHscicPractices</title>
<path fill="none" stroke="black" d="M1079.14,-374.757C1030.98,-369.984 968.541,-357.155 923.562,-324 902.613,-308.558 888.685,-281.939 880.56,-261.825"/>
<polygon fill="black" stroke="black" points="883.755,-260.379 876.934,-252.272 877.211,-262.864 883.755,-260.379"/>
</g>
<!-- ImportCcgDetails&#45;&gt;ImportPrescriptions -->
<g id="edge29" class="edge"><title>ImportCcgDetails&#45;&gt;ImportPrescriptions</title>
<path fill="none" stroke="black" d="M1223.54,-373.904C1267.6,-368.626 1322.76,-355.554 1361.56,-324 1389.17,-301.551 1388.58,-286.674 1396.56,-252 1400.15,-236.408 1405.99,-228.928 1396.56,-216 1384.72,-199.751 1340.25,-186.021 1300.47,-176.609"/>
<polygon fill="black" stroke="black" points="1301.01,-173.142 1290.48,-174.311 1299.44,-179.964 1301.01,-173.142"/>
</g>
<!-- ImportPatientListSize -->
<g id="node17" class="node"><title>ImportPatientListSize</title>
<ellipse fill="none" stroke="black" cx="437.562" cy="-162" rx="87.9412" ry="18"/>
<text text-anchor="middle" x="437.562" y="-157.8" font-family="Times,serif" font-size="14.00">ImportPatientListSize</text>
</g>
<!-- ImportPracticeDetails&#45;&gt;ImportPatientListSize -->
<g id="edge12" class="edge"><title>ImportPracticeDetails&#45;&gt;ImportPatientListSize</title>
<path fill="none" stroke="black" d="M502.517,-288.949C488.18,-279.871 471.931,-267.271 461.562,-252 449.03,-233.542 443.029,-208.793 440.164,-190.079"/>
<polygon fill="black" stroke="black" points="443.627,-189.57 438.842,-180.116 436.688,-190.49 443.627,-189.57"/>
</g>
<!-- ImportPracticeDetails&#45;&gt;ImportHscicPractices -->
<g id="edge42" class="edge"><title>ImportPracticeDetails&#45;&gt;ImportHscicPractices</title>
<path fill="none" stroke="black" d="M592,-292.727C650.729,-280.6 740.517,-262.059 802.411,-249.279"/>
<polygon fill="black" stroke="black" points="803.392,-252.65 812.478,-247.2 801.977,-245.795 803.392,-252.65"/>
</g>
<!-- ImportNhsPostcodeFile -->
<g id="node23" class="node"><title>ImportNhsPostcodeFile</title>
<ellipse fill="none" stroke="black" cx="673.562" cy="-234" rx="94.231" ry="18"/>
<text text-anchor="middle" x="673.562" y="-229.8" font-family="Times,serif" font-size="14.00">ImportNhsPostcodeFile</text>
</g>
<!-- ImportPracticeDetails&#45;&gt;ImportNhsPostcodeFile -->
<g id="edge18" class="edge"><title>ImportPracticeDetails&#45;&gt;ImportNhsPostcodeFile</title>
<path fill="none" stroke="black" d="M564.557,-289.116C584.517,-279.207 610.416,-266.349 631.961,-255.653"/>
<polygon fill="black" stroke="black" points="633.805,-258.645 641.206,-251.064 630.692,-252.375 633.805,-258.645"/>
</g>
<!-- BQUploadPractices -->
<g id="node26" class="node"><title>BQUploadPractices</title>
<ellipse fill="none" stroke="black" cx="667.562" cy="-162" rx="80.1903" ry="18"/>
<text text-anchor="middle" x="667.562" y="-157.8" font-family="Times,serif" font-size="14.00">BQUploadPractices</text>
</g>
<!-- ImportPracticeDetails&#45;&gt;BQUploadPractices -->
<g id="edge32" class="edge"><title>ImportPracticeDetails&#45;&gt;BQUploadPractices</title>
<path fill="none" stroke="black" d="M517.47,-288.256C502.292,-269.307 483.291,-238.195 499.562,-216 518.49,-190.182 550.025,-176.616 580.694,-169.6"/>
<polygon fill="black" stroke="black" points="581.523,-173.002 590.604,-167.545 580.102,-166.148 581.523,-173.002"/>
</g>
<!-- ImportPracticeDetails&#45;&gt;ImportPrescriptions -->
<g id="edge30" class="edge"><title>ImportPracticeDetails&#45;&gt;ImportPrescriptions</title>
<path fill="none" stroke="black" d="M534.575,-287.992C538.014,-267.251 547.105,-232.876 570.562,-216 576.349,-211.837 969.204,-182.365 1146.45,-169.258"/>
<polygon fill="black" stroke="black" points="1146.81,-172.741 1156.52,-168.513 1146.29,-165.76 1146.81,-172.741"/>
</g>
<!-- ImportDispensingPractices -->
<g id="node31" class="node"><title>ImportDispensingPractices</title>
<ellipse fill="none" stroke="black" cx="871.562" cy="-162" rx="105.782" ry="18"/>
<text text-anchor="middle" x="871.562" y="-157.8" font-family="Times,serif" font-size="14.00">ImportDispensingPractices</text>
</g>
<!-- ImportPracticeDetails&#45;&gt;ImportDispensingPractices -->
<g id="edge34" class="edge"><title>ImportPracticeDetails&#45;&gt;ImportDispensingPractices</title>
<path fill="none" stroke="black" d="M527.827,-287.873C523.466,-267.977 520.028,-235.406 537.562,-216 539.658,-213.68 686.941,-190.967 785.205,-176.037"/>
<polygon fill="black" stroke="black" points="785.787,-179.489 795.148,-174.527 784.736,-172.568 785.787,-179.489"/>
</g>
<!-- FetchPracticeDetails -->
<g id="node9" class="node"><title>FetchPracticeDetails</title>
<ellipse fill="none" stroke="black" cx="532.562" cy="-378" rx="83.0632" ry="18"/>
<text text-anchor="middle" x="532.562" y="-373.8" font-family="Times,serif" font-size="14.00">FetchPracticeDetails</text>
</g>
<!-- FetchPracticeDetails&#45;&gt;ImportPracticeDetails -->
<g id="edge4" class="edge"><title>FetchPracticeDetails&#45;&gt;ImportPracticeDetails</title>
<path fill="none" stroke="black" d="M532.562,-359.697C532.562,-351.983 532.562,-342.712 532.562,-334.112"/>
<polygon fill="black" stroke="black" points="536.062,-334.104 532.562,-324.104 529.062,-334.104 536.062,-334.104"/>
</g>
<!-- ConvertHscicPrescriptions -->
<g id="node10" class="node"><title>ConvertHscicPrescriptions</title>
<ellipse fill="none" stroke="black" cx="1282.56" cy="-234" rx="104.821" ry="18"/>
<text text-anchor="middle" x="1282.56" y="-229.8" font-family="Times,serif" font-size="14.00">ConvertHscicPrescriptions</text>
</g>
<!-- ConvertHscicPrescriptions&#45;&gt;ImportPrescriptions -->
<g id="edge27" class="edge"><title>ConvertHscicPrescriptions&#45;&gt;ImportPrescriptions</title>
<path fill="none" stroke="black" d="M1270.22,-216.055C1264.17,-207.753 1256.76,-197.584 1250.05,-188.378"/>
<polygon fill="black" stroke="black" points="1252.87,-186.297 1244.15,-180.275 1247.21,-190.419 1252.87,-186.297"/>
</g>
<!-- FetchPrescribing -->
<g id="node11" class="node"><title>FetchPrescribing</title>
<ellipse fill="none" stroke="black" cx="1282.56" cy="-306" rx="70.0668" ry="18"/>
<text text-anchor="middle" x="1282.56" y="-301.8" font-family="Times,serif" font-size="14.00">FetchPrescribing</text>
</g>
<!-- FetchPrescribing&#45;&gt;ConvertHscicPrescriptions -->
<g id="edge6" class="edge"><title>FetchPrescribing&#45;&gt;ConvertHscicPrescriptions</title>
<path fill="none" stroke="black" d="M1282.56,-287.697C1282.56,-279.983 1282.56,-270.712 1282.56,-262.112"/>
<polygon fill="black" stroke="black" points="1286.06,-262.104 1282.56,-252.104 1279.06,-262.104 1286.06,-262.104"/>
</g>
<!-- FetchAdqs -->
<g id="node12" class="node"><title>FetchAdqs</title>
<ellipse fill="none" stroke="black" cx="1649.56" cy="-234" rx="48.3514" ry="18"/>
<text text-anchor="middle" x="1649.56" y="-229.8" font-family="Times,serif" font-size="14.00">FetchAdqs</text>
</g>
<!-- FetchAdqs&#45;&gt;ImportAdqs -->
<g id="edge37" class="edge"><title>FetchAdqs&#45;&gt;ImportAdqs</title>
<path fill="none" stroke="black" d="M1642.3,-216.055C1638.89,-208.091 1634.74,-198.411 1630.92,-189.51"/>
<polygon fill="black" stroke="black" points="1634.12,-188.088 1626.97,-180.275 1627.69,-190.845 1634.12,-188.088"/>
</g>
<!-- BQUploadPresentations&#45;&gt;ImportMeasures -->
<g id="edge22" class="edge"><title>BQUploadPresentations&#45;&gt;ImportMeasures</title>
<path fill="none" stroke="black" d="M1496.57,-72.7646C1478.97,-62.9074 1456.33,-50.2309 1437.46,-39.6628"/>
<polygon fill="black" stroke="black" points="1438.97,-36.4981 1428.54,-34.6658 1435.55,-42.6056 1438.97,-36.4981"/>
</g>
<!-- ImportHscicChemicals -->
<g id="node14" class="node"><title>ImportHscicChemicals</title>
<ellipse fill="none" stroke="black" cx="1067.56" cy="-234" rx="91.7825" ry="18"/>
<text text-anchor="middle" x="1067.56" y="-229.8" font-family="Times,serif" font-size="14.00">ImportHscicChemicals</text>
</g>
<!-- FetchPrescribingMetadata -->
<g id="node15" class="node"><title>FetchPrescribingMetadata</title>
<ellipse fill="none" stroke="black" cx="1035.56" cy="-306" rx="102.866" ry="18"/>
<text text-anchor="middle" x="1035.56" y="-301.8" font-family="Times,serif" font-size="14.00">FetchPrescribingMetadata</text>
</g>
<!-- FetchPrescribingMetadata&#45;&gt;ImportHscicChemicals -->
<g id="edge8" class="edge"><title>FetchPrescribingMetadata&#45;&gt;ImportHscicChemicals</title>
<path fill="none" stroke="black" d="M1043.47,-287.697C1047.12,-279.728 1051.52,-270.1 1055.56,-261.264"/>
<polygon fill="black" stroke="black" points="1058.77,-262.654 1059.74,-252.104 1052.4,-259.744 1058.77,-262.654"/>
</g>
<!-- FetchPrescribingMetadata&#45;&gt;ImportHscicPractices -->
<g id="edge40" class="edge"><title>FetchPrescribingMetadata&#45;&gt;ImportHscicPractices</title>
<path fill="none" stroke="black" d="M998.348,-289.116C974.298,-278.85 942.832,-265.42 917.265,-254.507"/>
<polygon fill="black" stroke="black" points="918.354,-251.167 907.783,-250.46 915.606,-257.605 918.354,-251.167"/>
</g>
<!-- RefreshViews -->
<g id="node21" class="node"><title>RefreshViews</title>
<ellipse fill="none" stroke="black" cx="1053.56" cy="-18" rx="59.8577" ry="18"/>
<text text-anchor="middle" x="1053.56" y="-13.8" font-family="Times,serif" font-size="14.00">RefreshViews</text>
</g>
<!-- GeneratePresentationReplacements&#45;&gt;RefreshViews -->
<g id="edge14" class="edge"><title>GeneratePresentationReplacements&#45;&gt;RefreshViews</title>
<path fill="none" stroke="black" d="M1226.24,-73.2034C1189.49,-61.6667 1139.89,-46.0983 1103.28,-34.6063"/>
<polygon fill="black" stroke="black" points="1103.91,-31.1354 1093.32,-31.4798 1101.81,-37.8141 1103.91,-31.1354"/>
</g>
<!-- GeneratePresentationReplacements&#45;&gt;ImportMeasures -->
<g id="edge19" class="edge"><title>GeneratePresentationReplacements&#45;&gt;ImportMeasures</title>
<path fill="none" stroke="black" d="M1305.95,-72.411C1323.43,-62.5436 1345.74,-49.947 1364.31,-39.4653"/>
<polygon fill="black" stroke="black" points="1366.1,-42.4747 1373.09,-34.5108 1362.66,-36.3789 1366.1,-42.4747"/>
</g>
<!-- BQUploadPracticeStatistics -->
<g id="node22" class="node"><title>BQUploadPracticeStatistics</title>
<ellipse fill="none" stroke="black" cx="976.562" cy="-90" rx="108.681" ry="18"/>
<text text-anchor="middle" x="976.562" y="-85.8" font-family="Times,serif" font-size="14.00">BQUploadPracticeStatistics</text>
</g>
<!-- ImportPatientListSize&#45;&gt;BQUploadPracticeStatistics -->
<g id="edge16" class="edge"><title>ImportPatientListSize&#45;&gt;BQUploadPracticeStatistics</title>
<path fill="none" stroke="black" d="M509.416,-151.668C605.902,-139.138 777.459,-116.858 883.658,-103.066"/>
<polygon fill="black" stroke="black" points="884.26,-106.517 893.726,-101.758 883.359,-99.575 884.26,-106.517"/>
</g>
<!-- FetchPatientListSize -->
<g id="node18" class="node"><title>FetchPatientListSize</title>
<ellipse fill="none" stroke="black" cx="326.562" cy="-234" rx="83.0977" ry="18"/>
<text text-anchor="middle" x="326.562" y="-229.8" font-family="Times,serif" font-size="14.00">FetchPatientListSize</text>
</g>
<!-- FetchPatientListSize&#45;&gt;ImportPatientListSize -->
<g id="edge10" class="edge"><title>FetchPatientListSize&#45;&gt;ImportPatientListSize</title>
<path fill="none" stroke="black" d="M352.307,-216.765C367.329,-207.291 386.481,-195.214 402.825,-184.906"/>
<polygon fill="black" stroke="black" points="404.981,-187.685 411.573,-179.39 401.247,-181.764 404.981,-187.685"/>
</g>
<!-- ImportHscicPractices&#45;&gt;ImportPatientListSize -->
<g id="edge11" class="edge"><title>ImportHscicPractices&#45;&gt;ImportPatientListSize</title>
<path fill="none" stroke="black" d="M808.997,-221.603C798.188,-219.691 787.055,-217.759 776.562,-216 687.389,-201.052 584.787,-185.198 516.027,-174.767"/>
<polygon fill="black" stroke="black" points="516.545,-171.306 506.134,-173.268 515.497,-178.227 516.545,-171.306"/>
</g>
<!-- ImportHscicPractices&#45;&gt;BQUploadPractices -->
<g id="edge31" class="edge"><title>ImportHscicPractices&#45;&gt;BQUploadPractices</title>
<path fill="none" stroke="black" d="M828.797,-218.326C796.896,-207.379 753.164,-192.373 719.294,-180.751"/>
<polygon fill="black" stroke="black" points="720.167,-177.35 709.572,-177.415 717.895,-183.971 720.167,-177.35"/>
</g>
<!-- ImportHscicPractices&#45;&gt;ImportPrescriptions -->
<g id="edge26" class="edge"><title>ImportHscicPractices&#45;&gt;ImportPrescriptions</title>
<path fill="none" stroke="black" d="M932.224,-221.205C996.076,-208.789 1096.39,-189.283 1163.05,-176.321"/>
<polygon fill="black" stroke="black" points="1163.89,-179.723 1173.04,-174.379 1162.56,-172.852 1163.89,-179.723"/>
</g>
<!-- ImportHscicPractices&#45;&gt;ImportDispensingPractices -->
<g id="edge33" class="edge"><title>ImportHscicPractices&#45;&gt;ImportDispensingPractices</title>
<path fill="none" stroke="black" d="M871.562,-215.697C871.562,-207.983 871.562,-198.712 871.562,-190.112"/>
<polygon fill="black" stroke="black" points="875.062,-190.104 871.562,-180.104 868.062,-190.104 875.062,-190.104"/>
</g>
<!-- ImportPatientListWeightings -->
<g id="node20" class="node"><title>ImportPatientListWeightings</title>
<ellipse fill="none" stroke="black" cx="112.562" cy="-234" rx="112.625" ry="18"/>
<text text-anchor="middle" x="112.562" y="-229.8" font-family="Times,serif" font-size="14.00">ImportPatientListWeightings</text>
</g>
<!-- ImportPatientListWeightings&#45;&gt;ImportPatientListSize -->
<g id="edge13" class="edge"><title>ImportPatientListWeightings&#45;&gt;ImportPatientListSize</title>
<path fill="none" stroke="black" d="M176.772,-219.17C232.441,-207.18 312.763,-189.88 369.526,-177.654"/>
<polygon fill="black" stroke="black" points="370.446,-181.036 379.485,-175.509 368.972,-174.193 370.446,-181.036"/>
</g>
<!-- BQUploadPracticeStatistics&#45;&gt;RefreshViews -->
<g id="edge15" class="edge"><title>BQUploadPracticeStatistics&#45;&gt;RefreshViews</title>
<path fill="none" stroke="black" d="M995.202,-72.055C1005.09,-63.0685 1017.38,-51.8954 1028.13,-42.1235"/>
<polygon fill="black" stroke="black" points="1030.58,-44.6236 1035.62,-35.307 1025.87,-39.444 1030.58,-44.6236"/>
</g>
<!-- BQUploadPracticeStatistics&#45;&gt;ImportMeasures -->
<g id="edge23" class="edge"><title>BQUploadPracticeStatistics&#45;&gt;ImportMeasures</title>
<path fill="none" stroke="black" d="M1050.9,-76.7268C1131.03,-63.4991 1257.36,-42.6411 1334.23,-29.9506"/>
<polygon fill="black" stroke="black" points="1334.98,-33.3744 1344.28,-28.2921 1333.84,-26.4679 1334.98,-33.3744"/>
</g>
<!-- FetchNhsPostcodeFile -->
<g id="node24" class="node"><title>FetchNhsPostcodeFile</title>
<ellipse fill="none" stroke="black" cx="727.562" cy="-306" rx="89.8878" ry="18"/>
<text text-anchor="middle" x="727.562" y="-301.8" font-family="Times,serif" font-size="14.00">FetchNhsPostcodeFile</text>
</g>
<!-- FetchNhsPostcodeFile&#45;&gt;ImportNhsPostcodeFile -->
<g id="edge17" class="edge"><title>FetchNhsPostcodeFile&#45;&gt;ImportNhsPostcodeFile</title>
<path fill="none" stroke="black" d="M714.49,-288.055C708.086,-279.753 700.241,-269.584 693.14,-260.378"/>
<polygon fill="black" stroke="black" points="695.768,-258.055 686.889,-252.275 690.226,-262.331 695.768,-258.055"/>
</g>
<!-- BQUploadPractices&#45;&gt;ImportMeasures -->
<g id="edge21" class="edge"><title>BQUploadPractices&#45;&gt;ImportMeasures</title>
<path fill="none" stroke="black" d="M724.895,-149.327C735.403,-147.394 746.293,-145.525 756.562,-144 905.996,-121.809 957.385,-171.285 1094.56,-108 1115.69,-98.2543 1111.89,-82.6772 1132.56,-72 1192.27,-41.1597 1267.97,-28.2222 1323.68,-22.8176"/>
<polygon fill="black" stroke="black" points="1324.2,-26.2849 1333.84,-21.8934 1323.57,-19.3136 1324.2,-26.2849"/>
</g>
<!-- ImportMeasureDefinitions -->
<g id="node27" class="node"><title>ImportMeasureDefinitions</title>
<ellipse fill="none" stroke="black" cx="1893.56" cy="-90" rx="103.861" ry="18"/>
<text text-anchor="middle" x="1893.56" y="-85.8" font-family="Times,serif" font-size="14.00">ImportMeasureDefinitions</text>
</g>
<!-- ImportMeasureDefinitions&#45;&gt;ImportMeasures -->
<g id="edge24" class="edge"><title>ImportMeasureDefinitions&#45;&gt;ImportMeasures</title>
<path fill="none" stroke="black" d="M1818.21,-77.5484C1805.64,-75.6715 1792.74,-73.7645 1780.56,-72 1671.89,-56.2477 1545.61,-38.8056 1469.45,-28.3817"/>
<polygon fill="black" stroke="black" points="1469.89,-24.9086 1459.5,-27.0209 1468.94,-31.844 1469.89,-24.9086"/>
</g>
<!-- FetchPatientListWeightings -->
<g id="node28" class="node"><title>FetchPatientListWeightings</title>
<ellipse fill="none" stroke="black" cx="112.562" cy="-306" rx="108.281" ry="18"/>
<text text-anchor="middle" x="112.562" y="-301.8" font-family="Times,serif" font-size="14.00">FetchPatientListWeightings</text>
</g>
<!-- FetchPatientListWeightings&#45;&gt;ImportPatientListWeightings -->
<g id="edge25" class="edge"><title>FetchPatientListWeightings&#45;&gt;ImportPatientListWeightings</title>
<path fill="none" stroke="black" d="M112.562,-287.697C112.562,-279.983 112.562,-270.712 112.562,-262.112"/>
<polygon fill="black" stroke="black" points="116.062,-262.104 112.562,-252.104 109.062,-262.104 116.062,-262.104"/>
</g>
<!-- FetchCcgDetails -->
<g id="node30" class="node"><title>FetchCcgDetails</title>
<ellipse fill="none" stroke="black" cx="1239.56" cy="-450" rx="69.0978" ry="18"/>
<text text-anchor="middle" x="1239.56" y="-445.8" font-family="Times,serif" font-size="14.00">FetchCcgDetails</text>
</g>
<!-- FetchCcgDetails&#45;&gt;ImportCcgDetails -->
<g id="edge35" class="edge"><title>FetchCcgDetails&#45;&gt;ImportCcgDetails</title>
<path fill="none" stroke="black" d="M1219.15,-432.765C1207.57,-423.554 1192.9,-411.882 1180.19,-401.769"/>
<polygon fill="black" stroke="black" points="1182.17,-398.876 1172.17,-395.39 1177.81,-404.354 1182.17,-398.876"/>
</g>
</g>
</svg>
